<svg width="38" height="38" fill="none" xmlns="http://www.w3.org/2000/svg"><path d="M.024 6.282c0 .572.236 1.14.64 1.545.407.406.976.642 1.55.642a2.215 2.215 0 0 0 1.546-.64c.406-.406.642-.975.642-1.547a2.215 2.215 0 0 0-.637-1.551 2.215 2.215 0 0 0-1.55-.64 2.215 2.215 0 0 0-1.55.64c-.407.414-.637.97-.64 1.55Zm0 11.674c0 .572.234 1.147.64 1.551.407.407.973.64 1.55.64a2.22 2.22 0 0 0 1.548-.64c.409-.413.639-.97.64-1.55a2.22 2.22 0 0 0-.64-1.548 2.212 2.212 0 0 0-1.547-.64 2.22 2.22 0 0 0-1.55.64 2.212 2.212 0 0 0-.64 1.547Zm0 11.678c0 .572.234 1.144.64 1.55.407.407.973.64 1.55.64a2.22 2.22 0 0 0 1.548-.64c.409-.412.639-.97.64-1.55a2.22 2.22 0 0 0-.64-1.55 2.212 2.212 0 0 0-1.547-.64 2.22 2.22 0 0 0-1.55.64c-.408.413-.637.97-.64 1.55Zm37.95-23.352c0 1.209-.943 2.187-2.106 2.187h-24.98c-1.165 0-2.105-.976-2.105-2.187-.003-1.215.94-2.19 2.106-2.19h24.979c1.165 0 2.106.978 2.106 2.19Zm-2.106 13.865h-24.98c-1.165 0-2.105-.979-2.105-2.19 0-1.21.94-2.188 2.106-2.188h24.979c1.165-.005 2.106.976 2.106 2.187 0 1.207-.943 2.19-2.106 2.19Zm2.106 9.484c0 1.212-.943 2.193-2.106 2.193h-24.98c-1.165 0-2.105-.98-2.105-2.193 0-1.206.94-2.187 2.106-2.187h24.979c1.165-.003 2.106.981 2.106 2.187Z" fill="#fff"/></svg>