<svg width="14" height="14" fill="none" xmlns="http://www.w3.org/2000/svg"><g clip-path="url('#clip0_1_209')"><path d="M11.588 1.482H2.42A2.446 2.446 0 0 0 0 3.946v6.11a2.446 2.446 0 0 0 2.42 2.462h9.168a2.445 2.445 0 0 0 2.42-2.462v-6.11a2.445 2.445 0 0 0-2.42-2.464Zm.193 3.148L8.698 7.85a2.318 2.318 0 0 1-3.367 0L2.23 4.612a.562.562 0 0 1 .187-.905.539.539 0 0 1 .594.128l3.105 3.237a1.236 1.236 0 0 0 1.8 0l3.082-3.22a.539.539 0 0 1 .772-.01.56.56 0 0 1 .011.785v.003Z" fill="#353535"/></g><defs><clipPath id="clip0_1_209"><path fill="#fff" d="M0 0h14v14H0z"/></clipPath></defs></svg>