<svg width="16" height="16" fill="none" xmlns="http://www.w3.org/2000/svg"><g clip-path="url('#clip0_1_206')" fill="#353535"><path d="M7.763 13.235s4.737-4.06 4.737-8.28C12.46 2.407 10.35.337 7.763.337c-2.588 0-4.738 2.07-4.738 4.618 0 4.379 4.738 8.28 4.738 8.28ZM5.175 5.074a2.582 2.582 0 0 1 2.588-2.588 2.582 2.582 0 0 1 2.587 2.588 2.582 2.582 0 0 1-2.587 2.588c-1.433 0-2.588-1.195-2.588-2.588Z"/><path d="M11.505 10.727c-.319.398-.597.796-.916 1.114 3.304.2 4.02.876 4.18 1.235-.16.398-2.388 1.353-6.807 1.353-4.419.04-6.648-.955-6.768-1.314.12-.318.637-.955 3.663-1.194-.279-.318-.597-.716-.916-1.115-2.468.28-3.941.876-3.941 2.27 0 2.03 5.016 2.547 8.002 2.547 2.985 0 8.001-.557 8.001-2.547 0-1.473-1.831-2.11-4.498-2.35Z"/></g><defs><clipPath id="clip0_1_206"><path fill="#fff" d="M0 0h16v16H0z"/></clipPath></defs></svg>