<svg width="36" height="36" fill="none" xmlns="http://www.w3.org/2000/svg"><path d="M19.178 4.345c0-.668-.486-1.214-1.153-1.214-.668 0-1.214.546-1.214 1.214v9.71c0 .971.303 1.76.971 2.367.546.486 1.153.971 1.76 1.396.91.607 1.881 1.092 2.853 1.639.788.424 1.213 1.092 1.274 2.002 0 .547.06 1.093.06 1.7V28.5c0 .667.547 1.153 1.215 1.153.607 0 1.153-.486 1.153-1.093v-6.554c0-1.457-.729-2.55-2.125-3.035a47.002 47.002 0 0 1-1.577-.546c-2.064-.728-3.096-2.003-3.217-4.248v-9.59M12.26 7.137v-.183a1.24 1.24 0 0 0-1.214-.97c-.607 0-1.093.424-1.214 1.031v7.404c0 .729.243 1.396.728 1.882.546.546 1.153 1.092 1.821 1.517a41.147 41.147 0 0 0 3.095 1.82c.79.426 1.153 1.093 1.153 1.943 0 .546.061 1.092.061 1.639v8.011c0 .667.546 1.213 1.214 1.213.668 0 1.214-.546 1.214-1.213v-9.043c0-1.517-.729-2.67-2.246-3.156-.485-.182-.97-.364-1.456-.486-2.064-.667-3.096-2.124-3.217-4.187" fill="#fff"/><path d="M23.67 9.14v7.889c0 .182.12.425.242.485l2.185 1.093V7.076c0-.668-.546-1.214-1.214-1.214-.667 0-1.214.546-1.214 1.153M5.766 21.46V10.413c-1.639.91-3.156 1.82-4.795 2.791 1.578 2.731 3.156 5.463 4.795 8.254ZM30.284 14.116s-.06 0-.06.06v10.925a123.64 123.64 0 0 0 4.794-2.792 491.804 491.804 0 0 0-4.734-8.193ZM12.32 19.578c0-.121-.121-.303-.182-.364-.728-.546-1.517-1.032-2.245-1.517V28.56c0 .668.546 1.214 1.213 1.214.668 0 1.214-.546 1.214-1.153" fill="#fff"/></svg>