<svg width="16" height="16" fill="none" xmlns="http://www.w3.org/2000/svg"><path d="m13.62 12.044-2.593-2.593a.834.834 0 0 0-1.178 0l-.59.59c-.333.333-1.412.001-2.357-.943-.944-.945-1.276-2.024-.942-2.357l.589-.59a.834.834 0 0 0 0-1.178L3.956 2.38a.834.834 0 0 0-1.178 0l-.59.59c-.435.435-.7 1.008-.788 1.702-.082.644-.006 1.366.223 2.146.46 1.566 1.498 3.213 2.922 4.637 1.424 1.423 3.07 2.462 4.637 2.922.577.17 1.122.255 1.627.255.174 0 .347-.01.52-.032.694-.088 1.266-.353 1.702-.788l.589-.59a.834.834 0 0 0 0-1.178Z" fill="#353535"/></svg>