<svg width="24" height="24" viewBox="0 0 24 24" fill="none" xmlns="http://www.w3.org/2000/svg">
<path d="M19.3498 12.75H3.0166C2.81769 12.75 2.62692 12.671 2.48627 12.5303C2.34562 12.3897 2.2666 12.1989 2.2666 12C2.2666 11.8011 2.34562 11.6103 2.48627 11.4697C2.62692 11.329 2.81769 11.25 3.0166 11.25H19.3498C19.5487 11.25 19.7395 11.329 19.8801 11.4697C20.0208 11.6103 20.0998 11.8011 20.0998 12C20.0998 12.1989 20.0208 12.3897 19.8801 12.5303C19.7395 12.671 19.5487 12.75 19.3498 12.75Z" fill="#FF350D"/>
<path d="M14.0026 18.72C13.8542 18.72 13.7092 18.676 13.5858 18.5936C13.4625 18.5112 13.3663 18.3941 13.3095 18.257C13.2528 18.12 13.2379 17.9691 13.2669 17.8236C13.2958 17.6781 13.3673 17.5445 13.4722 17.4396L18.9058 12L13.4722 6.56639C13.4025 6.49673 13.3473 6.41404 13.3096 6.32304C13.2719 6.23203 13.2525 6.13449 13.2525 6.03599C13.2525 5.93748 13.2719 5.83994 13.3096 5.74894C13.3473 5.65793 13.4025 5.57524 13.4722 5.50559C13.5418 5.43593 13.6245 5.38068 13.7155 5.34299C13.8065 5.30529 13.9041 5.28589 14.0026 5.28589C14.1011 5.28589 14.1986 5.30529 14.2896 5.34299C14.3806 5.38068 14.4633 5.43593 14.533 5.50559L21.0262 12L14.533 18.4944C14.4639 18.5652 14.3814 18.6216 14.2904 18.6604C14.1993 18.6991 14.1015 18.7194 14.0026 18.72Z" fill="#FF350D"/>
</svg>
