<svg width="14" height="14" viewBox="0 0 14 14" fill="none" xmlns="http://www.w3.org/2000/svg">
<g clip-path="url(#clip0_1_209)">
<path d="M11.5881 1.48193H2.41954C1.77227 1.48888 1.15416 1.75213 0.700644 2.214C0.247128 2.67587 -0.00479863 3.29869 6.92552e-05 3.94597V10.0562C-0.00423452 10.7031 0.247942 11.3254 0.701397 11.7868C1.15485 12.2482 1.77265 12.5112 2.41954 12.5181H11.5881C12.235 12.5113 12.8528 12.2484 13.3063 11.7869C13.7598 11.3255 14.0119 10.7031 14.0075 10.0562V3.94597C14.0125 3.29866 13.7606 2.67577 13.3071 2.21388C12.8535 1.75199 12.2354 1.48877 11.5881 1.48193V1.48193ZM11.7808 4.63022L8.69785 7.84896C8.48121 8.07769 8.22021 8.25986 7.93081 8.38436C7.64141 8.50886 7.32967 8.57306 7.01463 8.57306C6.69958 8.57306 6.38784 8.50886 6.09844 8.38436C5.80904 8.25986 5.54804 8.07769 5.33139 7.84896L2.22853 4.61154C2.127 4.5053 2.07112 4.36352 2.07286 4.21658C2.07461 4.06963 2.13384 3.92922 2.23787 3.82542C2.28869 3.77438 2.34924 3.73404 2.41592 3.7068C2.48261 3.67956 2.55408 3.66598 2.62611 3.66685C2.69814 3.66772 2.76926 3.68303 2.83527 3.71187C2.90127 3.74071 2.96083 3.7825 3.0104 3.83476L6.11496 7.07218C6.23052 7.19484 6.36994 7.29257 6.52465 7.35937C6.67937 7.42617 6.84611 7.46063 7.01463 7.46063C7.18314 7.46063 7.34988 7.42617 7.50459 7.35937C7.65931 7.29257 7.79873 7.19484 7.91429 7.07218L10.9968 3.85217C11.0463 3.79988 11.1059 3.75805 11.1718 3.72918C11.2378 3.7003 11.309 3.68495 11.381 3.68404C11.453 3.68313 11.5245 3.69667 11.5912 3.72388C11.6579 3.75108 11.7185 3.79138 11.7693 3.8424C11.8737 3.94565 11.9333 4.08577 11.9354 4.23257C11.9375 4.37937 11.8818 4.5211 11.7803 4.62725L11.7808 4.63022Z" fill="#353535"/>
</g>
<defs>
<clipPath id="clip0_1_209">
<rect width="14" height="14" fill="white"/>
</clipPath>
</defs>
</svg>
