<svg width="16" height="16" viewBox="0 0 16 16" fill="none" xmlns="http://www.w3.org/2000/svg">
<g clip-path="url(#clip0_1_206)">
<path d="M7.76276 13.2348C7.76276 13.2348 12.5 9.17427 12.5 4.95452C12.4602 2.40674 10.3503 0.33667 7.76276 0.33667C5.17517 0.33667 3.02548 2.40674 3.02548 4.95452C3.02548 9.33351 7.76276 13.2348 7.76276 13.2348ZM5.17517 5.07394C5.17517 3.64082 6.32963 2.48636 7.76276 2.48636C9.19588 2.48636 10.3503 3.64082 10.3503 5.07394C10.3503 6.50707 9.19588 7.66153 7.76276 7.66153C6.32963 7.66153 5.17517 6.46726 5.17517 5.07394Z" fill="#353535"/>
<path d="M11.5048 10.7268C11.1863 11.1249 10.9077 11.523 10.5892 11.8415C13.8933 12.0405 14.6099 12.7173 14.7691 13.0755C14.6099 13.4736 12.3806 14.429 7.9618 14.429C3.543 14.4689 1.3137 13.4736 1.19427 13.1153C1.3137 12.7969 1.83122 12.1599 4.8567 11.9211C4.57804 11.6026 4.25957 11.2045 3.94109 10.8064C1.47293 11.0851 0 11.6822 0 13.0755C0 15.1058 5.01594 15.6233 8.00161 15.6233C10.9873 15.6233 16.0032 15.066 16.0032 13.0755C16.0032 11.6026 14.172 10.9657 11.5048 10.7268Z" fill="#353535"/>
</g>
<defs>
<clipPath id="clip0_1_206">
<rect width="16" height="16" fill="white"/>
</clipPath>
</defs>
</svg>
