<svg width="36" height="36" viewBox="0 0 36 36" fill="none" xmlns="http://www.w3.org/2000/svg">
<path d="M19.178 4.34467C19.178 3.67707 18.6924 3.13086 18.0248 3.13086C17.3572 3.13086 16.811 3.67707 16.811 4.34467C16.811 4.40536 16.811 4.46605 16.811 4.52674C16.811 8.47162 16.811 10.8385 16.811 14.0551C16.811 15.0262 17.1145 15.8152 17.7821 16.4221C18.3283 16.9076 18.9352 17.3931 19.5421 17.818C20.4525 18.4249 21.4235 18.9104 22.3946 19.4566C23.1835 19.8814 23.6084 20.549 23.6691 21.4594C23.6691 22.0056 23.7297 22.5518 23.7297 23.1587C23.7297 25.1008 23.7297 26.5574 23.7297 28.3174C23.7297 28.3781 23.7297 28.4388 23.7297 28.4995C23.7297 29.1671 24.276 29.6526 24.9436 29.6526C25.5505 29.6526 26.0967 29.1671 26.0967 28.5602C26.0967 28.5602 26.0967 28.5602 26.0967 28.4995V28.4388C26.0967 26.3146 26.0967 24.1905 26.0967 22.0056C26.0967 20.549 25.3684 19.4566 23.9725 18.9711C23.4263 18.789 22.8801 18.6069 22.3946 18.4249C20.3311 17.6966 19.2993 16.4221 19.178 14.1765C19.178 12.5986 19.178 6.22607 19.178 4.58743" fill="white"/>
<path d="M12.2596 7.13652C12.2596 7.07583 12.2596 7.01514 12.2596 6.95445C12.1383 6.40823 11.6527 5.9834 11.0458 5.9834C10.4389 5.9834 9.95341 6.40823 9.83203 7.01514C9.83203 7.01514 9.83203 7.01514 9.83203 7.07583C9.83203 7.13652 9.83203 7.19721 9.83203 7.2579C9.83203 7.31859 9.83203 7.31859 9.83203 7.37928C9.83203 9.68552 9.83203 12.0524 9.83203 14.4194C9.83203 15.1477 10.0748 15.8153 10.5603 16.3008C11.1065 16.847 11.7134 17.3932 12.381 17.818C13.4128 18.4856 14.4445 19.0925 15.4762 19.6388C16.2652 20.0636 16.6294 20.7312 16.6294 21.5809C16.6294 22.1271 16.6901 22.6733 16.6901 23.2195C16.6901 25.8292 16.6901 28.4389 16.6901 31.0486C16.6901 31.1093 16.6901 31.1093 16.6901 31.1699C16.6901 31.1699 16.6901 31.1699 16.6901 31.2306C16.6901 31.8982 17.2363 32.4444 17.9039 32.4444C18.5715 32.4444 19.1177 31.8982 19.1177 31.2306C19.1177 31.2306 19.1177 31.2306 19.1177 31.1699C19.1177 28.1354 19.1177 25.2223 19.1177 22.1878C19.1177 20.6705 18.3894 19.5174 16.8721 19.0319C16.3866 18.8498 15.9011 18.6677 15.4156 18.5463C13.3521 17.8787 12.3203 16.4222 12.199 14.3587" fill="white"/>
<path d="M23.6694 9.1391C23.6694 11.7488 23.6694 14.3585 23.6694 17.0289C23.6694 17.2109 23.7908 17.4537 23.9122 17.5144C24.6405 17.8785 25.3688 18.2427 26.0971 18.6068C26.0971 18.6068 26.0971 10.8991 26.0971 7.07563C26.0971 6.40803 25.5508 5.86182 24.8832 5.86182C24.2156 5.86182 23.6694 6.40803 23.6694 7.01494" fill="white"/>
<path d="M5.76574 21.4592V10.4136C4.1271 11.3239 2.60983 12.2343 0.971191 13.2053C2.54914 15.9364 4.1271 18.6675 5.76574 21.4592Z" fill="white"/>
<path d="M30.2843 14.1157C30.2843 14.1157 30.2236 14.1157 30.2236 14.1764V25.1007C31.8623 24.1903 33.4402 23.28 35.0182 22.3089C33.4402 19.5172 31.8623 16.7861 30.2843 14.1157Z" fill="white"/>
<path d="M12.3202 19.5779C12.3202 19.4566 12.1988 19.2745 12.1381 19.2138C11.4098 18.6676 10.6209 18.1821 9.89258 17.6965C9.89258 17.6965 9.89258 24.9794 9.89258 28.5601C9.89258 29.2277 10.4388 29.7739 11.1064 29.7739C11.774 29.7739 12.3202 29.2277 12.3202 28.6208" fill="white"/>
</svg>
