<svg width="16" height="16" viewBox="0 0 16 16" fill="none" xmlns="http://www.w3.org/2000/svg">
<path d="M13.6199 12.044L11.0272 9.45117C10.8708 9.29514 10.6589 9.20751 10.4379 9.20751C10.217 9.20751 10.0051 9.29514 9.84865 9.45117L9.25938 10.0404C8.92604 10.3738 7.84667 10.042 6.9024 9.09763C5.95813 8.15325 5.62573 7.0744 5.95959 6.74065L6.54886 6.15138C6.70489 5.99496 6.79252 5.78304 6.79252 5.56211C6.79252 5.34117 6.70489 5.12925 6.54886 4.97284L3.95604 2.38013C3.79964 2.2241 3.58774 2.13647 3.36682 2.13647C3.14591 2.13647 2.934 2.2241 2.77761 2.38013L2.18834 2.9694C1.75292 3.40482 1.48771 3.97752 1.3999 4.67169C1.31844 5.31554 1.39354 6.03763 1.62302 6.81752C2.08334 8.38419 3.12146 10.0313 4.54531 11.4547C5.96917 12.8781 7.61594 13.9167 9.18209 14.377C9.75906 14.5467 10.3042 14.632 10.8094 14.632C10.9829 14.6323 11.1562 14.6216 11.3283 14.6001C12.0225 14.5123 12.5952 14.2471 13.0306 13.8117L13.6199 13.2224C13.7759 13.066 13.8636 12.8541 13.8636 12.6332C13.8636 12.4123 13.7759 12.2004 13.6199 12.044Z" fill="#353535"/>
</svg>
